HIERARCHY
ROOT hip
{
	OFFSET 0.000000 0.000000 0.000000
	CHANNELS 6 Xposition Yposition Zposition Zrotation Yrotation Xrotation 
	JOINT lhipjoint
	{
		OFFSET 0.000000 0.000000 0.000000
		CHANNELS 3 Zrotation Yrotation Xrotation
		JOINT lfemur
		{
			OFFSET 1.363060 -1.794630 0.839290
			CHANNELS 3 Zrotation Yrotation Xrotation
			JOINT ltibia
			{
				OFFSET 2.448110 -6.726130 0.000000
				CHANNELS 3 Zrotation Yrotation Xrotation
				JOINT lfoot
				{
					OFFSET 2.562200 -7.039590 0.000000
					CHANNELS 3 Zrotation Yrotation Xrotation
					JOINT ltoes
					{
						OFFSET 0.157640 -0.433110 2.322550
						CHANNELS 3 Zrotation Yrotation Xrotation
						End Site
						{
							OFFSET 0.000000 0.000000 0.000000
						}
					}
				}
			}
		}
	}
	JOINT rhipjoint
	{
		OFFSET 0.000000 0.000000 0.000000
		CHANNELS 3 Zrotation Yrotation Xrotation
		JOINT rfemur
		{
			OFFSET -1.305520 -1.794630 0.839290
			CHANNELS 3 Zrotation Yrotation Xrotation
			JOINT rtibia
			{
				OFFSET -2.542530 -6.985550 0.000000
				CHANNELS 3 Zrotation Yrotation Xrotation
				JOINT rfoot
				{
					OFFSET -2.568260 -7.056230 0.000000
					CHANNELS 3 Zrotation Yrotation Xrotation
					JOINT rtoes
					{
						OFFSET -0.164730 -0.452590 2.363150
						CHANNELS 3 Zrotation Yrotation Xrotation
						End Site
						{
							OFFSET 0.000000 0.000000 0.000000
						}
					}
				}
			}
		}
	}
	JOINT lowerback
	{
		OFFSET 0.000000 0.000000 0.000000
		CHANNELS 3 Zrotation Yrotation Xrotation
		JOINT upperback
		{
			OFFSET 0.028270 2.035590 -0.193380
			CHANNELS 3 Zrotation Yrotation Xrotation
			JOINT thorax
			{
				OFFSET 0.056720 2.048850 -0.042750
				CHANNELS 3 Zrotation Yrotation Xrotation
				JOINT lowerneck
				{
					OFFSET 0.000000 0.000000 0.000000
					CHANNELS 3 Zrotation Yrotation Xrotation
					JOINT upperneck
					{
						OFFSET -0.054170 1.746240 0.172020
						CHANNELS 3 Zrotation Yrotation Xrotation
						JOINT head
						{
							OFFSET 0.104070 1.761360 -0.123970
							CHANNELS 3 Zrotation Yrotation Xrotation
							End Site
							{
								OFFSET 0.000000 0.000000 0.000000
							}
						}
					}
				}
				JOINT lclavicle
				{
					OFFSET 0.000000 0.000000 0.000000
					CHANNELS 3 Zrotation Yrotation Xrotation
					JOINT lhumerus
					{
						OFFSET 3.362410 1.200890 -0.311210
						CHANNELS 3 Zrotation Yrotation Xrotation
						JOINT lradius
						{
							OFFSET 4.983000 -0.000000 -0.000000
							CHANNELS 3 Zrotation Yrotation Xrotation
							JOINT lwrist
							{
								OFFSET 3.483560 -0.000000 -0.000000
								CHANNELS 3 Zrotation Yrotation Xrotation
								JOINT lhand
								{
									OFFSET 0.000000 0.000000 0.000000
									CHANNELS 3 Zrotation Yrotation Xrotation
									JOINT lfingers
									{
										OFFSET 0.715260 -0.000000 -0.000000
										CHANNELS 3 Zrotation Yrotation Xrotation
										End Site
										{
											OFFSET 0.000000 0.000000 0.000000
										}
									}
								}
								JOINT lthumb
								{
									OFFSET 0.000000 0.000000 0.000000
									CHANNELS 3 Zrotation Yrotation Xrotation
									End Site
									{
										OFFSET 0.000000 0.000000 0.000000
									}
								}
							}
						}
					}
				}
				JOINT rclavicle
				{
					OFFSET 0.000000 0.000000 0.000000
					CHANNELS 3 Zrotation Yrotation Xrotation
					JOINT rhumerus
					{
						OFFSET -3.136600 1.374050 -0.404650
						CHANNELS 3 Zrotation Yrotation Xrotation
						JOINT rradius
						{
							OFFSET -5.241900 -0.000000 -0.000000
							CHANNELS 3 Zrotation Yrotation Xrotation
							JOINT rwrist
							{
								OFFSET -3.444170 -0.000000 -0.000000
								CHANNELS 3 Zrotation Yrotation Xrotation
								JOINT rhand
								{
									OFFSET 0.000000 0.000000 0.000000
									CHANNELS 3 Zrotation Yrotation Xrotation
									JOINT rfingers
									{
										OFFSET -0.622530 -0.000000 -0.000000
										CHANNELS 3 Zrotation Yrotation Xrotation
										End Site
										{
											OFFSET 0.000000 0.000000 0.000000
										}
									}
								}
								JOINT rthumb
								{
									OFFSET 0.000000 0.000000 0.000000
									CHANNELS 3 Zrotation Yrotation Xrotation
									End Site
									{
										OFFSET 0.000000 0.000000 0.000000
									}
								}
							}
						}
					}
				}
			}
		}
	}
}
MOTION
Frames: 6
Frame Time: 0.008333
-2.398971 14.327409 -2.553941 154.853404 55.294421 137.277577 -3.525372 3.505651 1.900587 -6.920071 22.036821 -18.167580 15.105602 19.275712 74.441014 4.006993 -15.091017 -18.733402 1.957000 -8.776000 -25.097000 -2.359100 -3.865342 1.603439 -3.599218 38.767224 11.756784 -9.185113 -17.436123 57.436017 1.236075 -14.438008 -26.979182 -2.141400 9.154500 -26.279900 30.652500 -13.297592 10.951210 6.885777 -9.521727 -2.203765 12.328873 -1.693834 5.031020 -0.071668 4.021915 3.127006 -19.199653 8.428353 12.907366 -5.854000 4.075600 3.937300 1.395221 2.862796 0.972799 -66.109308 12.472141 -0.762369 8.409135 -29.316868 -3.043606 -0.998047 0.573718 -179.590904 14.362612 10.636086 2.659400 -7.125000 0.000000 0.000000 -12.213400 41.250800 1.148600 5.273731 -0.247763 1.865940 41.331489 11.780603 -49.891408 -143.460138 42.042227 -105.456941 0.559683 -0.475818 88.158335 0.955654 -38.172168 -0.290300 7.125000 0.000000 0.000000 43.574000 -63.340400 -21.394600 
-2.446733 14.252793 -2.667402 155.260839 54.942043 137.423522 -3.548378 3.484402 1.898991 -7.169352 21.769927 -18.356294 15.521172 19.368202 75.636446 4.100168 -15.371810 -19.219198 1.838100 -8.520400 -24.306300 -2.390262 -3.850629 1.637557 -3.483444 38.670624 12.395585 -9.233461 -17.502924 57.629798 1.488590 -15.475694 -27.134275 -2.072600 9.015800 -25.844600 30.661962 -13.127713 10.839938 6.959869 -9.258325 -2.221783 12.672530 -1.577406 5.025446 -0.190352 3.653072 3.095564 -19.387734 7.980021 12.959522 -5.915300 3.853400 3.911200 1.490744 2.831968 0.980292 -67.188425 13.582020 -3.983137 7.986528 -28.625723 -2.912609 -1.019592 0.603065 177.855007 14.366297 9.863199 2.498500 -7.125000 0.000000 0.000000 -12.046100 40.551500 1.343500 5.280779 -0.234166 1.837332 42.999067 12.802256 -49.691073 -144.804810 40.792462 -106.495484 0.565864 -0.395818 87.498567 -0.533867 -42.353204 0.648100 7.125000 0.000000 0.000000 48.716700 -66.639300 -28.088000 
-2.492138 14.178177 -2.779940 155.653682 54.585559 137.558961 -3.572936 3.465273 1.897422 -7.413625 21.525971 -18.523199 15.933977 19.450197 76.814675 4.198715 -15.661701 -19.731030 1.723900 -8.265600 -23.523700 -2.419624 -3.836465 1.671289 -3.353081 38.533336 13.012960 -9.299804 -17.574013 57.877484 1.737126 -16.513501 -27.327359 -1.997700 8.861200 -25.362200 30.647196 -12.945086 10.707872 7.031691 -8.996739 -2.240571 13.016005 -1.463582 5.025544 -0.339658 3.286681 3.092056 -19.573112 7.537287 13.019573 -5.967300 3.635000 3.879600 1.572940 2.800246 0.984785 -68.221009 14.793296 -6.763579 7.654522 -28.062839 -2.812915 -1.036195 0.628496 174.549481 14.412544 8.900174 2.305200 -7.125000 0.000000 0.000000 -11.794900 39.673500 1.573800 5.294834 -0.220238 1.819744 44.584228 13.737976 -49.042245 -145.904446 39.677111 -107.311648 0.569503 -0.325712 87.062851 -2.456526 -46.687820 2.062800 7.125000 0.000000 0.000000 55.797200 -69.848500 -36.803700 
-2.536108 14.101922 -2.892786 156.025514 54.262516 137.666455 -3.598432 3.447846 1.893118 -7.635478 21.323169 -18.669476 16.344332 19.523952 77.979763 4.299254 -15.896985 -20.292561 1.650100 -8.095700 -23.005200 -2.443891 -3.826128 1.697626 -3.176297 38.412432 13.611837 -9.389213 -17.651674 58.191368 2.006108 -17.608630 -27.503086 -1.878300 8.607800 -24.576100 30.639009 -12.736261 10.573217 7.095806 -8.713662 -2.248354 13.330366 -1.336771 5.069235 -0.493790 2.924377 3.035594 -19.724630 7.097773 13.098688 -6.002400 3.412300 3.864100 1.643302 2.770574 0.984355 -69.152053 15.992916 -8.945126 7.301678 -27.495498 -2.703222 -1.048657 0.646968 170.501030 14.403488 7.810575 2.073900 -7.125000 0.000000 0.000000 -11.560700 38.666300 1.832600 5.321865 -0.207699 1.812673 45.989507 14.567212 -47.978113 -146.682607 38.789409 -107.858533 0.565734 -0.269257 86.965030 -4.860132 -51.364277 4.061800 7.125000 0.000000 0.000000 66.530800 -72.812100 -49.203700 
-2.579975 14.025769 -3.004709 156.373042 53.924368 137.729769 -3.626665 3.434408 1.890012 -7.870687 21.144637 -18.776928 16.747951 19.585394 79.118338 4.404633 -16.093654 -20.907075 1.602200 -7.983200 -22.662900 -2.465416 -3.816281 1.722947 -2.986262 38.265921 14.196243 -9.498391 -17.735185 58.561756 2.268018 -18.641905 -27.630050 -1.671600 8.145700 -23.157500 30.590183 -12.535202 10.460001 7.159546 -8.434598 -2.255793 13.664451 -1.215999 5.110118 -0.645331 2.565114 2.992048 -19.908828 6.670887 13.193986 -6.051800 3.197400 3.853600 1.709311 2.736013 0.983536 -70.123752 17.200336 -10.823492 6.964394 -26.966622 -2.599968 -1.057546 0.668081 166.018901 14.415480 6.524490 1.800500 -7.125000 0.000000 0.000000 -11.271900 37.467100 2.122400 5.359835 -0.194046 1.818870 47.253602 15.250772 -46.440445 -147.165074 38.131039 -108.166783 0.552671 -0.227766 87.193582 -7.972671 -56.359978 6.901300 7.125000 0.000000 0.000000 82.501700 -74.994400 -66.837500 
-2.624047 13.949719 -3.115608 156.676523 53.594037 137.784710 -3.655986 3.419326 1.887280 -8.146562 20.977387 -18.913086 17.143329 19.635442 80.230505 4.509826 -16.275642 -21.520622 1.558400 -7.878400 -22.345300 -2.481536 -3.806948 1.745511 -2.834242 38.121285 14.671714 -9.628643 -17.823160 58.996511 2.489513 -19.534386 -27.785449 -1.385400 7.447400 -21.047900 30.544028 -12.314866 10.338902 7.212205 -8.146625 -2.270457 13.947577 -1.093077 5.130790 -0.751207 2.235839 2.944815 -20.089892 6.289887 13.340307 -6.111400 3.003700 3.871400 1.762573 2.694165 0.977925 -71.023395 18.546570 -11.857974 6.716483 -26.628122 -2.535318 -1.055611 0.681762 160.680017 14.163677 5.039886 1.447500 -7.125000 0.000000 0.000000 -11.159700 36.045700 2.495100 5.398914 -0.183536 1.839288 48.572380 15.860743 -44.415050 -147.388576 37.682469 -108.275064 0.536593 -0.201361 87.773735 -12.286433 -61.456760 11.072400 7.125000 0.000000 0.000000 88.770600 76.019200 103.146200 
